<svg xmlns="http://www.w3.org/2000/svg" viewBox="0 0 800 480" role="img" aria-label="DNX Dashboard illustration">
  <defs>
    <linearGradient id="g1" x1="0" x2="1" y1="0" y2="1">
      <stop offset="0%" stop-color="#3b82f6"/>
      <stop offset="100%" stop-color="#06b6d4"/>
    </linearGradient>
  </defs>
  <rect width="800" height="480" fill="#0b1020"/>
  <rect x="80" y="60" width="640" height="360" rx="16" fill="#121935" stroke="#1f2a4a"/>
  <rect x="80" y="60" width="640" height="48" rx="16" fill="#0f1530"/>
  <circle cx="112" cy="84" r="6" fill="#ef4444"/>
  <circle cx="132" cy="84" r="6" fill="#f59e0b"/>
  <circle cx="152" cy="84" r="6" fill="#10b981"/>
  <rect x="120" y="140" width="200" height="14" rx="7" fill="url(#g1)" opacity="0.9"/>
  <rect x="120" y="170" width="140" height="10" rx="5" fill="#2b3560"/>
  <rect x="120" y="190" width="180" height="10" rx="5" fill="#2b3560"/>
  <rect x="120" y="210" width="160" height="10" rx="5" fill="#2b3560"/>
  <rect x="360" y="140" width="320" height="200" rx="10" fill="#0e162f" stroke="#1f2a4a"/>
  <path d="M380 320 L400 240 L430 280 L460 220 L490 300 L520 200 L540 280 L560 240 L590 310 L660 200" fill="none" stroke="url(#g1)" stroke-width="4"/>
  <g fill="#253158">
    <rect x="120" y="260" width="200" height="36" rx="8"/>
    <rect x="120" y="306" width="200" height="36" rx="8"/>
  </g>
  <text x="128" y="283" font-family="Inter,Segoe UI,Arial" font-size="14" fill="#c7d2fe">Tasks</text>
  <text x="128" y="329" font-family="Inter,Segoe UI,Arial" font-size="14" fill="#c7d2fe">Messages</text>
  <text x="80" y="440" font-family="Inter,Segoe UI,Arial" font-size="16" fill="#7dd3fc">DNX Dashboard • React · Vite · Express · MongoDB · Socket.io</text>
</svg>

